# xmcd
#
# Track frame offsets:
#	150
#	22792
#	34488
#
# Disc length: 689 seconds
#
# Revision: 0
# Processed by: cddbd v1.5.2PL0 Copyright (c) Steve Scherf et al.
# Submitted via: audiograbber 1.83.01
#
DISCID=1a02af03
DTITLE=Lingby - TOUR EP
DYEAR=2008
DGENRE=Indie
TTITLE0=I'M A RUNNER
TTITLE1=SCHWIMMTIERE
TTITLE2=I CAN'T FIND YOU
EXTD=
EXTT0=
EXTT1=
EXTT2=
PLAYORDER=
